<svg id="Layer_1" enable-background="new 0 0 512 512" viewBox="0 0 512 512" xmlns="http://www.w3.org/2000/svg"><g><g><path d="m411.5 107.4c.2 11.4-13.8 35.6-29.9 44.2-2.6-9.2-6.7-18.1-11.9-25.7-2.6-4.1-5.9-7.5-7.3-12.2-3-7.6-1.7-13.6-1.1-21-1.4-4.2-6.5-.5-9.8-.5-9 1.8-22 .3-30.2-6.1-5.5-4.1-9.7-8.7-16.9-9.3 0-.1 0-.1-.1 0-20.3-.8-38.3 12.4-54.9 23.9h-.1c-.1-59.9 30.5-125.7 99-81.3 26.8 17.3 39.8 40.3 45.1 50.9 10.9 8.8 20.3 18.9 18.1 37.1z" fill="#4771c6"/></g><g><path d="m395.8 149.7c1.3 11.2-11.3 21.7-21.1 16.1-52.5 82.1-158 25.4-125.3-65.2h.1c16.5-11.3 34.5-24.7 55-23.8.1-.1.1-.1.1 0 8.2.6 12.5 6.7 19.1 10.8 8 5.3 19.8 6.2 28 4.6 2.7-.3 4.9-1.1 7.4-1.6 1.1.1 2.3 1 2.4 2.1-.6 7.3-1.9 13.6 1.1 21 1.3 4.7 4.6 8 7.3 12.2 5.1 7.6 9.2 16.5 11.9 25.7 4.3-2.8 8.2-5.8 11.8-9.3 1.3 2.1 2 4.7 2.2 7.4z" fill="#f9cfcf"/></g><g><path d="m477.3 247c-7.4 9.9-20.5 19.3-29.7 27.5 0 0-26.4 22.6-26.4 22.6l-24.9 21.3-61.4 144.4h-28.2v-21.7c0-11.2-9-20.2-20.2-20.2h-52.7l-17.5-90.9c-1.4-7.5-7.9-12.8-15.4-12.8h-58.6l20.3-67.2c-4.6-16.7-11.9-45.2-16.2-62.5-9.6-39.6-29.4-86.9 13.4-114.2 18.8-11.5 43.1-9.5 64.4-10.7 9.9-.5 19.9-1.1 29.7-1.5-3.2 14.6-4 26.4-4.6 38.5-18 4.6-36.2 9.1-54.4 13.2-3.9.8-8 2.2-6 7 9.5 21.4 14.4 45.3 29.9 63.6 0 0 28.4 35.1 28.4 35.1 8.4 2.6 82.8 26.3 93.2 29.6l1.4-.4 53.8-15.9c13.3-3.8 25-10.6 36.2-18.4 10.8-6.9 6.5-19.3-1.7-26.4-7.6-8.2-27.1-29.4-34.5-37.3-.1-2.6-.9-5.3-2.3-7.4 13.1-12.8 17-26 18.1-34.9 15.4 13.3 41.7 35.8 56.9 49.1 26.2 22 30.2 63.3 9 90.5z" fill="#6cdddd"/></g><g><path d="m241.9 462.8h-203.8c-7.6 0-14-5.3-15.5-12.8l-22-114.2c-1.9-9.7 5.6-18.7 15.4-18.7h184.8c7.6 0 14 5.3 15.5 12.8 5.5 28.4 20.3 105.6 25.6 132.9z" fill="#ffc878"/></g><g><path d="m306.7 441.1v21.8h-64.8l-8.1-42h52.7c11.2-.1 20.2 9 20.2 20.2z" fill="#ffb53e"/></g><g><path d="m359.7 184.5-17.9 63.3-1.4.4-78.3-24.8 11.7-28.6c26.8 18.3 62.7 12.1 85.9-10.3z" fill="#f4b8b8"/></g><g><path d="m4.8 462.8h506.8v44.4h-506.8z" fill="#4771c6"/></g><g><path d="m462.9 337.5-46.3 125.4h-81.6l61.4-144.4 24.9-21.3h13.5c20.9-.1 35.3 20.7 28.1 40.3z" fill="#638cc6"/></g><g><g><path d="m341.9 121.1c-6.6-5.1-26.6-.3-20.1 10.5 2.1 2.6 5.9 2.9 8.5.7 1.7-1.4 3.9-1.7 5.6-.8 1.8 1 2.1 3.5 2.1 3.5 1.1 7.8 12.9 6.2 11.9-1.6-.3-1.9-1.6-8.6-8-12.3z" fill="#f9a8a7"/></g><g><path d="m279.2 120c1.7-1.4 4-1.7 5.5-.8 1.8 1 2.1 3.4 2.1 3.5.4 3.3 3.5 5.6 6.7 5.2 9.7-2.3 4.3-15-2.8-19.1-6.6-5.1-26.6-.3-20 10.5 2.1 2.5 5.9 2.8 8.5.7z" fill="#f9a8a7"/></g><g><path d="m319 163.2c-22.7 6.8-34.1-8.1-34.7-8.8-2-2.7-5.7-3.3-8.4-1.3-2.7 1.9-3.3 5.7-1.4 8.4.5.8 11.5 15.6 32.8 15.6 5.6-.5 21.2.1 19.1-9.8-.8-3.3-4.2-5.1-7.4-4.1z" fill="#f9a8a7"/></g></g></g></svg>