<svg id="Capa_1" enable-background="new 0 0 512.004 512.004" height="512" viewBox="0 0 512.004 512.004" width="512" xmlns="http://www.w3.org/2000/svg"><path d="m106 362.002h-60c-8.284 0-15 6.716-15 15v110c0 8.284 6.716 15 15 15h60c8.284 0 15-6.716 15-15v-110c0-8.284-6.716-15-15-15z" fill="#4bc0ff"/><path d="m226 326.002h-60c-8.284 0-15 6.716-15 15v146c0 8.284 6.716 15 15 15h60c8.284 0 15-6.716 15-15v-146c0-8.284-6.716-15-15-15z" fill="#4bc0ff"/><path d="m346 271.002h-60c-8.284 0-15 6.716-15 15v201c0 8.284 6.716 15 15 15h60c8.284 0 15-6.716 15-15v-201c0-8.284-6.716-15-15-15z" fill="#0592fd"/><path d="m466 171.002h-60c-8.284 0-15 6.716-15 15v301c0 8.284 6.716 15 15 15h60c8.284 0 15-6.716 15-15v-301c0-8.284-6.716-15-15-15z" fill="#0592fd"/><path d="m511.489 102.79-24.563-91.67c-1.03-3.843-3.544-7.119-6.989-9.108-3.445-1.99-7.543-2.528-11.382-1.499l-91.67 24.563c-8.003 2.144-12.751 10.369-10.607 18.371 2.145 8.002 10.372 12.752 18.371 10.606l59.055-15.824c-34.324 59.647-91.052 118.394-159.588 164.513-85.826 57.756-181.401 89.564-269.116 89.564-8.284 0-15 6.716-15 15s6.716 15 15 15c93.618 0 195.141-33.622 285.866-94.673 71.056-47.815 130.286-108.898 167.078-171.445l14.567 54.367c1.796 6.702 7.856 11.122 14.479 11.122 1.285 0 2.592-.167 3.892-.515 8.002-2.145 12.751-10.37 10.607-18.372z" fill="#a5d02a"/><path d="m511.489 102.79-24.563-91.67c-1.03-3.843-3.544-7.119-6.989-9.108-3.445-1.99-7.543-2.528-11.382-1.499l-91.67 24.563c-8.003 2.144-12.751 10.369-10.607 18.371 2.145 8.002 10.372 12.752 18.371 10.606l59.055-15.824c-34.324 59.647-91.052 118.394-159.588 164.513-9.264 6.234-18.648 12.147-28.117 17.769v34.593c15.185-8.424 30.169-17.582 44.866-27.472 71.056-47.815 130.286-108.898 167.078-171.445l14.567 54.367c1.796 6.702 7.856 11.122 14.479 11.122 1.285 0 2.592-.167 3.892-.515 8.003-2.144 12.752-10.369 10.608-18.371z" fill="#90bc02"/><path d="m497 512.002h-482c-8.284 0-15-6.716-15-15s6.716-15 15-15h482c8.284 0 15 6.716 15 15s-6.716 15-15 15z" fill="#466288"/><path d="m497 482.002h-241v30h241c8.284 0 15-6.716 15-15s-6.716-15-15-15z" fill="#354a67"/></svg>