<svg height="512pt" viewBox="0 -7 512 512" width="512pt" xmlns="http://www.w3.org/2000/svg"><path d="m352.21875 231.828125-4.117188 4.117187h.003907c-2.074219 2.035157-4.023438 4.175782-5.867188 6.019532-8.238281 8.097656-15.789062 14.171875-23.890625 14.132812 0 0-15.367187-.074218-15.488281-.078125v.003907c-10.699219-.050782-21.449219 3.804687-21.582031 3.851562l-79.273438 31.0625c-18.910156 6.976562-13.222656 37.433594 11.050782 33.390625l35.003906-4.734375 99.796875 112.402344 47.796875-47.914063c22.0625-22.023437 2.886718-37.957031 20.625-55.667969.007812-.011718 13.890625-13.878906 13.894531-13.878906l2.375-2.378906c-16.480469-16.476562-62.21875-62.21875-80.328125-80.328125zm0 0" fill="#ffbeab"/><path d="m212.679688 309.941406c86.191406-33.769531 90.652343-36.945312 106.515624-36.871094v-.003906c.128907.003906 16.359376.082032 16.359376.082032 8.554687.042968 16.53125-6.371094 25.230468-14.921876v-.003906c1.945313-1.945312 4.007813-4.203125 6.195313-6.355468l2.636719-2.640626-17.398438-17.398437-4.117188 4.117187h.003907c-2.074219 2.035157-4.023438 4.175782-5.867188 6.019532-8.238281 8.097656-15.789062 14.171875-23.890625 14.132812 0 0-15.367187-.074218-15.488281-.078125v.003907c-10.699219-.050782-21.449219 3.804687-21.582031 3.851562l-79.273438 31.0625c-15.277344 5.632812-14.492187 26.582031-.839844 32.300781 1.136719-5.671875 4.890626-10.851562 11.515626-13.296875zm0 0" fill="#f7af9f"/><path d="m346.472656 442.386719c6.75-6.761719 6.707032-17.679688-.054687-24.433594l-97.796875-98.386719c-.300782-.300781-.722656-.441406-1.144532-.382812l-34.484374 4.96875c-24.273438 4.042968-29.25-25.789063-10.988282-32.1875l54.15625-22.25-25.117187-9.839844c-.132813-.046875-10.882813-3.90625-21.582031-3.851562l-.003907-.003907c-.117187 0-15.488281.074219-15.488281.074219-8.101562.039062-15.652344-6.03125-23.890625-14.128906h.003906c-1.84375-1.84375-3.796875-3.984375-5.867187-6.019532v-.003906l-4.273438-4.273437c-88.488281 88.484375-27.628906 27.628906-80.328125 80.328125 3.792969 3.792968 16.433594 16.417968 16.433594 16.417968 17.734375 17.710938-1.441406 33.640626 20.621094 55.664063l51.660156 51.582031-.039063.039063 57.894532 57.890625c6.757812 6.761718 17.71875 6.761718 24.480468.003906 6.761719-6.765625 6.761719-17.726562 0-24.488281l21.96875 21.96875c6.871094 6.867187 18.324219 7.078125 25.0625.082031 6.53125-6.785156 6.453126-17.578125-.234374-24.265625l8.941406 8.941406c6.867187 6.871094 18.324218 7.082031 25.058594.082031 6.535156-6.785156 6.453124-17.578124-.234376-24.269531l-9.042968-9.042969.015625-.015624c6.777343 6.5625 17.585937 6.496093 24.273437-.199219zm0 0" fill="#ffcdbf"/><g fill="#ffbeab"><path d="m200.980469 440.519531.046875-.046875-62.898438-62.808594c-26.863281-26.8125-3.519531-46.214843-25.113281-67.78125-.011719-.007812-11.730469-11.71875-15.652344-15.636718-5.808593 5.808594-2.679687 2.683594-17.746093 17.75 3.792968 3.792968 16.429687 16.417968 16.429687 16.417968 17.734375 17.710938-1.4375 33.640626 20.625 55.664063l51.65625 51.582031-.035156.039063 57.890625 57.890625c6.761718 6.761718 17.722656 6.761718 24.480468.003906.578126-.578125 1.089844-1.195312 1.566407-1.828125zm0 0"/><path d="m233.132812 372.3125c-3.996093-4.050781-10.519531-4.09375-14.570312-.097656s-4.09375 10.519531-.097656 14.570312l81.128906 82.238282 6.8125 6.8125c6.867188 6.867187 18.320312 7.078124 25.058594.082031.652344-.679688 1.222656-1.40625 1.746094-2.160157zm0 0"/><path d="m259.921875 350.105469c-3.996094-4.050781-10.519531-4.09375-14.570313-.097657-4.050781 3.996094-4.09375 10.519532-.097656 14.570313l77.015625 78.066406c6.777344 6.5 17.535157 6.417969 24.203125-.257812.769532-.773438 1.445313-1.605469 2.039063-2.476563zm0 0"/><path d="m207.207031 395.472656c-3.988281-4.054687-10.511719-4.113281-14.570312-.121094-4.054688 3.988282-4.109375 10.511719-.121094 14.566407l60.691406 61.726562 19.429688 19.429688c6.867187 6.867187 18.320312 7.078125 25.058593.082031.605469-.628906 1.136719-1.304688 1.628907-1.996094zm0 0"/></g><path d="m443.960938 324.601562c2.515624 2.515626 6.59375 2.515626 9.109374 0l57.042969-57.042968c2.515625-2.515625 2.515625-6.59375 0-9.109375-2.226562-2.226563-104.570312-104.570313-103.867187-103.867188-2.515625-2.519531-6.59375-2.519531-9.109375 0l-57.042969 57.042969c-2.519531 2.515625-2.519531 6.59375 0 9.109375 3.433594 3.433594 107.054688 107.054687 103.867188 103.867187zm0 0" fill="#54a0ff"/><path d="m353.4375 226.105469 58.179688-58.179688c1.695312-1.695312 4.085937-2.261719 6.253906-1.71875l-11.625-11.625c-2.515625-2.515625-6.59375-2.515625-9.109375 0l-57.042969 57.042969c-2.519531 2.515625-2.519531 6.59375 0 9.109375l11.625 11.625c-.546875-2.167969.023438-4.558594 1.71875-6.253906zm0 0" fill="#338def"/><path d="m68.039062 324.601562c-2.515624 2.515626-6.59375 2.515626-9.109374 0l-57.042969-57.042968c-2.515625-2.515625-2.515625-6.59375 0-9.109375 2.226562-2.226563 104.570312-104.570313 103.867187-103.867188 2.515625-2.519531 6.59375-2.519531 9.109375 0l57.042969 57.042969c2.519531 2.515625 2.519531 6.59375 0 9.109375-3.433594 3.433594-107.054688 107.054687-103.867188 103.867187zm0 0" fill="#576574"/><path d="m76.96875 311.179688-61.65625-61.65625c-.8125-.8125-1.375-1.773438-1.703125-2.796876l-11.722656 11.722657c-2.515625 2.515625-2.515625 6.59375 0 9.109375l57.042969 57.042968c2.515624 2.515626 6.59375 2.515626 9.109374 0l11.722657-11.722656c-1.019531-.328125-1.984375-.890625-2.792969-1.699218zm0 0" fill="#3e4b5a"/><path d="m487.972656 55.332031c3.128906-2.988281 1.402344-8.195312-2.921875-8.808593l-33.402343-4.753907c-1.71875-.246093-3.203126-1.300781-3.96875-2.828125l-14.941407-29.644531c-1.933593-3.839844-7.519531-3.839844-9.453125 0l-14.9375 29.644531c-.769531 1.527344-2.253906 2.582032-3.972656 2.828125l-33.402344 4.753907c-4.324218.613281-6.050781 5.820312-2.921875 8.808593l24.171875 23.078125c1.242188 1.183594 1.808594 2.894532 1.515625 4.570313l-5.707031 32.585937c-.738281 4.21875 3.78125 7.4375 7.652344 5.445313l29.875-15.386719c1.535156-.789062 3.371094-.789062 4.90625 0l29.875 15.386719c3.867187 1.992187 8.386718-1.226563 7.648437-5.445313l-5.707031-32.585937c-.292969-1.675781.277344-3.386719 1.519531-4.570313zm0 0" fill="#feca57"/><path d="m430.214844 77.015625c.296875-1.675781-.273438-3.382813-1.515625-4.570313l-24.167969-23.078124c-2.398438-2.289063-1.9375-5.867188.34375-7.699219-.164062.039062-.328125.078125-.496094.101562l-33.402344 4.753907c-4.324218.613281-6.050781 5.820312-2.921874 8.808593l24.167968 23.078125c1.242188 1.183594 1.808594 2.894532 1.515625 4.570313l-5.707031 32.585937c-.738281 4.21875 3.78125 7.4375 7.652344 5.445313l29.488281-15.1875zm0 0" fill="#f4b537"/><path d="m407.453125 40.558594 33.402344-4.753906c1.664062-.238282 3.101562-1.242188 3.886719-2.6875l-12-23.820313c-1.933594-3.839844-7.523438-3.839844-9.457032 0l-14.9375 29.644531c-.34375.683594-.835937 1.269532-1.425781 1.730469.171875-.042969.347656-.085937.53125-.113281zm0 0" fill="#f4b537"/><path d="m143.945312 55.332031c3.128907-2.988281 1.402344-8.195312-2.921874-8.808593l-33.402344-4.753907c-1.714844-.246093-3.199219-1.300781-3.96875-2.828125l-14.9375-29.648437c-1.933594-3.835938-7.523438-3.835938-9.457032 0l-14.9375 29.648437c-.765624 1.523438-2.25 2.582032-3.96875 2.824219l-33.402343 4.757813c-4.324219.613281-6.050781 5.820312-2.921875 8.808593l24.171875 23.078125c1.242187 1.183594 1.808593 2.894532 1.515625 4.570313l-5.707032 32.585937c-.738281 4.21875 3.78125 7.4375 7.648438 5.445313l29.875-15.386719c1.539062-.789062 3.371094-.789062 4.910156 0l29.875 15.386719c3.867188 1.992187 8.386719-1.226563 7.648438-5.445313l-5.707032-32.585937c-.292968-1.675781.273438-3.386719 1.515626-4.570313zm0 0" fill="#feca57"/><path d="m86.191406 77.015625c.292969-1.675781-.277344-3.382813-1.515625-4.570313l-24.171875-23.078124c-2.394531-2.289063-1.9375-5.867188.347656-7.699219-.164062.039062-.332031.078125-.5.101562l-33.402343 4.753907c-4.324219.613281-6.050781 5.820312-2.921875 8.808593l24.171875 23.078125c1.242187 1.183594 1.808593 2.894532 1.515625 4.570313l-5.707032 32.585937c-.738281 4.21875 3.78125 7.4375 7.652344 5.445313l29.488282-15.1875zm0 0" fill="#f4b537"/><path d="m63.425781 40.558594 33.402344-4.753906c1.664063-.238282 3.101563-1.242188 3.890625-2.6875l-12.003906-23.824219c-1.933594-3.835938-7.523438-3.835938-9.457032 0l-14.9375 29.648437c-.34375.683594-.835937 1.265625-1.425781 1.730469.175781-.042969.347657-.085937.53125-.113281zm0 0" fill="#f4b537"/><path d="m345.523438 73.035156c4.671874-4.460937 2.09375-12.234375-4.363282-13.152344l-49.871094-7.097656c-2.5625-.367187-4.78125-1.945312-5.925781-4.21875l-22.304687-44.269531c-2.886719-5.730469-11.230469-5.730469-14.117188 0l-22.304687 44.269531c-1.144531 2.273438-3.363281 3.851563-5.925781 4.21875l-49.871094 7.097656c-6.457032.917969-9.035156 8.691407-4.363282 13.152344l36.085938 34.457032c1.855469 1.769531 2.703125 4.324218 2.265625 6.824218l-8.519531 48.65625c-1.101563 6.296875 5.648437 11.101563 11.421875 8.128906l44.605469-22.972656c2.292968-1.179687 5.035156-1.179687 7.328124 0l44.605469 22.972656c5.773438 2.972657 12.523438-1.832031 11.421875-8.128906l-8.519531-48.65625c-.4375-2.5.410156-5.054687 2.265625-6.824218zm0 0" fill="#feca57"/><path d="m254.394531 47.277344c2.5625-.367188 4.777344-1.941406 5.925781-4.21875l11.132813-22.097656-8.394531-16.660157c-2.886719-5.734375-11.230469-5.734375-14.117188 0l-22.304687 44.265625c-.640625 1.273438-1.625 2.316406-2.808594 3.0625zm0 0" fill="#f4b537"/><path d="m229.992188 157.464844 8.519531-48.65625c.4375-2.5-.410157-5.050782-2.265625-6.824219l-36.085938-34.457031c-3.800781-3.628906-2.804687-9.445313 1.171875-11.984375l-30.492187 4.339843c-6.457032.917969-9.035156 8.691407-4.363282 13.152344l36.085938 34.457032c1.855469 1.769531 2.703125 4.324218 2.265625 6.824218l-8.519531 48.652344c-1.101563 6.300781 5.648437 11.105469 11.421875 8.128906l22.195312-11.429687c-.082031-.703125-.066406-1.441407.066407-2.203125zm0 0" fill="#f4b537"/></svg>