<svg width="1200" height="900" viewBox="0 0 1200 900" fill="none" xmlns="http://www.w3.org/2000/svg">
<path d="M427.684 0H165.884C156.718 0 148.896 6.62646 147.389 15.6675L3.63875 878.168C1.73396 889.596 10.5472 900 22.1336 900H626.25C636.605 900 645 891.605 645 881.25V618.75C645 608.395 636.605 600 626.25 600H367.316C355.668 600 346.839 589.491 348.847 578.018L446.153 21.9821C448.161 10.5086 439.332 0 427.684 0Z" fill="#003737"/>
<path d="M1177.86 0H573.746C563.39 0 554.996 8.39466 554.996 18.75V281.25C554.996 291.605 563.39 300 573.746 300H832.679C844.327 300 853.157 310.509 851.149 321.982L753.842 878.018C751.835 889.491 760.664 900 772.312 900H1034.11C1043.28 900 1051.1 893.374 1052.61 884.333L1196.36 21.8325C1198.26 10.4038 1189.45 0 1177.86 0Z" fill="#003737"/>
</svg>
