<svg width="406" height="50" viewBox="0 0 406 50" fill="none" xmlns="http://www.w3.org/2000/svg">
<path d="M23.7602 0H9.21576C8.70655 0 8.27198 0.368136 8.18826 0.870416L0.202153 48.7871C0.0963311 49.422 0.585957 50 1.22964 50H34.7917C35.367 50 35.8333 49.5336 35.8333 48.9583V34.375C35.8333 33.7997 35.367 33.3333 34.7917 33.3333H20.4065C19.7593 33.3333 19.2688 32.7495 19.3804 32.1121L24.7863 1.22123C24.8978 0.583811 24.4073 0 23.7602 0Z" fill="#FBBC00"/>
<path d="M65.4369 0H31.8749C31.2996 0 30.8333 0.466369 30.8333 1.04167V15.625C30.8333 16.2003 31.2996 16.6667 31.8749 16.6667H46.2601C46.9072 16.6667 47.3978 17.2505 47.2862 17.8879L41.8803 48.7788C41.7688 49.4162 42.2593 50 42.9064 50H57.4508C57.96 50 58.3946 49.6319 58.4783 49.1296L66.4644 1.21292C66.5703 0.577987 66.0806 0 65.4369 0Z" fill="#FBBC00"/>
<path d="M404.312 49.3216H375.953L384.569 0.610596H391.829L384.298 42.7409H405.465L404.312 49.3216Z" fill="#002020"/>
<path d="M368.601 49.3216H340.243L348.859 0.610596H356.118L348.588 42.7409H369.755L368.601 49.3216Z" fill="#002020"/>
<path d="M332.549 43.0122L331.464 49.3216H301.817L310.433 0.610596H339.605L338.52 6.91996H316.538L314.028 21.0991H334.042L332.956 27.3406H312.943L310.093 43.0122H332.549Z" fill="#002020"/>
<path d="M275.551 49.3216L272.498 10.9227L255.809 49.3216H248.278L244.75 0.610596H251.874L254.181 38.3311L270.599 0.610596H277.654L280.504 38.3989L296.243 0.610596H303.706L282.946 49.3216H275.551Z" fill="#002020"/>
<path d="M232.729 49.3216H200.504L209.12 0.610596H221.535L214.819 38.0597H234.697L232.729 49.3216Z" fill="#002020"/>
<path d="M193.706 49.3216H161.481L170.097 0.610596H182.512L175.796 38.0597H195.674L193.706 49.3216Z" fill="#002020"/>
<path d="M156.012 38.6025L154.113 49.3216H120.802L129.418 0.610596H162.322L160.49 11.3297H139.934L138.577 18.9281H157.166L155.266 29.6472H136.677L135.049 38.6025H156.012Z" fill="#002020"/>
<path d="M116.694 33.7178C116.694 37.0194 115.88 39.8915 114.252 42.3338C112.669 44.7761 110.407 46.6757 107.467 48.0326C104.527 49.3442 101.022 50 96.9517 50C90.6649 50 85.7124 48.4622 82.0942 45.3867C78.5211 42.2659 76.712 37.9692 76.6667 32.4966H88.8784C88.8784 34.758 89.6925 36.5898 91.3207 37.9919C92.949 39.3939 95.0747 40.095 97.698 40.095C99.1 40.095 100.276 39.9367 101.226 39.6201C102.176 39.2583 102.899 38.7381 103.397 38.0597C103.939 37.3813 104.211 36.5898 104.211 35.6852C104.211 34.5093 103.826 33.6047 103.058 32.9715C102.334 32.3383 100.977 31.7277 98.987 31.1398L91.3886 28.901C87.8155 27.8607 85.0566 26.1872 83.1118 23.8806C81.2122 21.574 80.2624 18.8376 80.2624 15.6716C80.2624 12.5057 81.0539 9.76933 82.6369 7.46269C84.2651 5.11081 86.5492 3.27906 89.489 1.96744C92.4288 0.655813 95.8436 0 99.7332 0C103.487 0 106.744 0.701041 109.503 2.10312C112.261 3.5052 114.41 5.49525 115.948 8.07327C117.531 10.6061 118.322 13.6137 118.322 17.0963H106.11C106.11 15.649 105.794 14.3826 105.161 13.2972C104.573 12.2117 103.736 11.3523 102.65 10.7191C101.61 10.0859 100.389 9.76934 98.987 9.76934C96.9969 9.76934 95.4365 10.199 94.3058 11.0583C93.1751 11.8725 92.6098 13.0032 92.6098 14.4505C92.6098 15.4907 92.9716 16.3727 93.6952 17.0963C94.4641 17.82 95.6174 18.408 97.1552 18.8602L105.161 21.1669C108.915 22.2524 111.764 23.8806 113.709 26.0516C115.699 28.1773 116.694 30.7327 116.694 33.7178Z" fill="#002020"/>
</svg>
