<svg id="Layer_1" viewBox="0 0 512 512" xmlns="http://www.w3.org/2000/svg" data-name="Layer 1"><path d="m360.112 255.984c0-11.113-1.734-22.039-5.152-32.475-1.298-3.96-4.557-6.962-8.609-7.93-4.054-.968-8.317.237-11.264 3.182l-39.392 39.366-42.022-42.022 39.387-39.36c2.948-2.946 4.155-7.212 3.188-11.266-.968-4.055-3.97-7.316-7.931-8.613-10.498-3.439-21.436-5.183-32.506-5.183-57.513 0-104.303 46.79-104.303 104.302 0 8.54 1.042 17.007 3.104 25.26l-18.159 18.162c-5.024-13.852-7.646-28.585-7.646-43.422 0-70.03 56.974-127.004 127.004-127.004s127.036 56.973 127.036 127.004-56.988 127.004-127.036 127.004c-14.837 0-29.569-2.62-43.421-7.638l18.162-18.166c8.253 2.061 16.719 3.103 25.258 3.103 57.513 0 104.303-46.79 104.303-104.303zm-129.312 76.327c8.086 2.649 16.5 3.992 25.009 3.992 44.288 0 80.318-36.031 80.318-80.319 0-1.42-.037-2.836-.11-4.247l-31.849 31.828c-4.683 4.681-12.274 4.68-16.957-.002l-58.981-58.981c-2.25-2.25-3.513-5.301-3.512-8.482s1.265-6.232 3.515-8.481l31.86-31.84c-1.424-.075-2.853-.113-4.285-.113-44.288 0-80.318 36.031-80.318 80.318 0 8.509 1.343 16.923 3.992 25.009 1.407 4.295.28 9.016-2.916 12.212l-159.904 159.936c-5.587 5.576-8.659 13.031-8.659 21s3.075 15.439 8.658 21.022c11.586 11.587 30.437 11.586 42.022 0l159.904-159.935c3.197-3.197 7.919-4.325 12.214-2.917zm206.924 14.961c1.132 0 2.258.028 3.38.07l12.532-30.287 43.045-19.873c4.247-1.961 6.966-6.211 6.966-10.888v-60.619c0-4.677-2.719-8.927-6.966-10.888l-43.044-19.872-14.742-35.636 16.369-44.466c1.615-4.387.533-9.313-2.771-12.62l-42.858-42.886c-3.308-3.31-8.239-4.394-12.629-2.776l-44.49 16.393-35.633-14.763-19.846-43.044c-1.959-4.25-6.211-6.971-10.89-6.971h-60.647c-4.677 0-8.927 2.719-10.888 6.966l-19.875 43.049-35.608 14.762-44.489-16.393c-4.388-1.617-9.318-.534-12.626 2.773l-42.886 42.886c-3.308 3.308-4.39 8.239-2.772 12.628l16.392 44.459-14.765 35.636-43.021 19.874c-4.245 1.961-6.963 6.211-6.963 10.887v60.619c0 4.676 2.718 8.926 6.963 10.887l43.021 19.874 14.766 35.638-6.085 16.514 51.386-51.396c-8.67-19.345-13.231-40.499-13.231-61.825 0-83.255 67.733-150.988 150.989-150.988s151.02 67.733 151.02 150.988-67.747 150.989-151.02 150.989c-21.326 0-42.48-4.556-61.822-13.218l-51.348 51.359 16.488-6.07 35.61 14.764 19.875 43.049c1.961 4.247 6.211 6.966 10.888 6.966h60.647c4.679 0 8.931-2.721 10.89-6.971l19.845-43.041 30.644-12.68c-.047-1.189-.077-2.382-.077-3.583 0-49.778 40.498-90.275 90.275-90.275zm66.275 90.275c0 36.544-29.731 66.275-66.275 66.275s-66.276-29.731-66.276-66.275 29.731-66.275 66.276-66.275 66.275 29.731 66.275 66.275zm-24.059-29.8c-4.592-4.779-12.188-4.932-16.967-.34l-36.249 34.824-14.077-14.077c-4.687-4.687-12.284-4.686-16.971 0-4.686 4.687-4.686 12.285 0 16.971l22.394 22.394c2.341 2.341 5.412 3.515 8.486 3.515 2.993 0 5.989-1.113 8.313-3.346l44.73-42.974c4.779-4.591 4.932-12.188.34-16.967z"/></svg>