<svg id="Layer_1" viewBox="0 0 512 512" xmlns="http://www.w3.org/2000/svg" data-name="Layer 1"><path d="m500.501 292.537c2.125-.98 3.485-3.107 3.485-5.447v-62.2c0-2.34-1.36-4.467-3.485-5.447l-46.409-21.426-17.011-41.123 17.647-47.938c.808-2.195.267-4.66-1.387-6.314l-43.977-44.005c-1.655-1.656-4.122-2.198-6.319-1.389l-47.964 17.674-41.121-17.038-21.397-46.407c-.98-2.126-3.107-3.488-5.449-3.488h-62.229c-2.34 0-4.467 1.36-5.447 3.485l-21.427 46.41-41.094 17.037-47.964-17.674c-2.195-.808-4.662-.268-6.317 1.387l-44.005 44.005c-1.655 1.655-2.197 4.122-1.387 6.318l17.673 47.935-17.038 41.123-46.381 21.426c-2.124.981-3.484 3.107-3.484 5.447v62.2c0 2.339 1.36 4.466 3.484 5.447l46.381 21.426 17.039 41.123-10.837 29.41-42.969 42.978c-8.446 8.429-13.097 19.688-13.097 31.703s4.649 23.277 13.093 31.721c8.743 8.742 20.226 13.113 31.709 13.113 11.484 0 22.968-4.372 31.71-13.114l43.018-43.027 29.371-10.812 41.095 17.038 21.427 46.41c.98 2.125 3.107 3.485 5.447 3.485h62.229c2.341 0 4.468-1.362 5.449-3.488l21.396-46.406 33.692-13.941c7.052 36.322 39.085 63.835 77.437 63.835 43.504 0 78.896-35.393 78.896-78.896 0-38.353-27.513-70.386-63.835-77.437l13.942-33.693 46.409-21.426zm-244.501 80.911c-15.955 0-31.175-3.203-45.057-8.992l19.969-19.973c8.157 2.312 16.573 3.483 25.073 3.483 50.716 0 91.976-41.26 91.976-91.976 0-9.802-1.528-19.438-4.542-28.637-.649-1.981-2.279-3.483-4.307-3.968-2.029-.486-4.161.118-5.636 1.591l-40.344 40.318-46.449-46.449 40.341-40.315c1.475-1.474 2.079-3.608 1.595-5.637-.484-2.028-1.987-3.66-3.968-4.309-9.26-3.033-18.905-4.57-28.667-4.57-50.716 0-91.976 41.26-91.976 91.976 0 8.5 1.17 16.917 3.483 25.075l-19.964 19.968c-5.784-13.879-8.986-29.093-8.986-45.043 0-64.767 52.691-117.458 117.458-117.458s117.458 52.691 117.458 117.458-52.691 117.458-117.458 117.458z" fill="#ffc250"/><path d="m343.419 227.353c-.649-1.981-2.279-3.483-4.307-3.968-2.029-.486-4.161.118-5.636 1.591l-40.344 40.318-46.449-46.449 40.341-40.315c1.475-1.474 2.079-3.608 1.595-5.637-.484-2.028-1.987-3.66-3.968-4.309-9.26-3.033-18.905-4.57-28.667-4.57-50.716 0-91.976 41.26-91.976 91.976 0 8.5 1.17 16.917 3.483 25.075l-146.379 146.409c-8.446 8.429-13.097 19.688-13.097 31.703s4.649 23.277 13.093 31.721c8.743 8.742 20.226 13.113 31.709 13.113 11.484 0 22.968-4.372 31.71-13.114l146.385-146.414c8.157 2.312 16.573 3.483 25.073 3.483 50.716 0 91.976-41.26 91.976-91.976 0-9.802-1.528-19.438-4.542-28.637z" fill="#4a80aa"/><g fill="#407093"><path d="m343.419 227.353c-.649-1.981-2.279-3.483-4.307-3.968-.927-.222-1.873-.206-2.771.006 1.079 5.674 1.636 11.461 1.636 17.311 0 50.716-41.26 91.976-91.976 91.976-8.5 0-16.917-1.17-25.073-3.483l-146.385 146.414c-8.743 8.742-20.227 13.113-31.71 13.114-11.483 0-22.967-4.371-31.709-13.113-.013-.013-.025-.027-.038-.04 2.218 5.685 5.592 10.897 10.022 15.328 8.743 8.742 20.226 13.113 31.709 13.113 11.484 0 22.968-4.372 31.71-13.114l146.385-146.414c8.157 2.312 16.573 3.483 25.073 3.483 50.716 0 91.976-41.26 91.976-91.976 0-9.802-1.528-19.438-4.542-28.637z"/><path d="m234.089 206.252 12.637 12.637 40.299-40.358c1.475-1.474 2.079-3.608 1.595-5.637-.484-2.028-1.987-3.66-3.968-4.309-3.368-1.103-6.789-2.003-10.246-2.708l-40.317 40.376z"/></g><path d="m255.985 114.532c-78 0-141.458 63.458-141.458 141.458 0 21.927 5.132 43.667 14.87 63.177l18.103-18.106c-5.891-14.21-8.973-29.581-8.973-45.071 0-64.767 52.691-117.458 117.458-117.458s117.487 52.691 117.487 117.458-52.705 117.458-117.487 117.458c-15.49 0-30.862-3.079-45.071-8.964l-18.104 18.108c19.508 9.729 41.247 14.856 63.175 14.856 78.016 0 141.487-63.458 141.487-141.458s-63.471-141.458-141.487-141.458z" fill="#f2b149"/><circle cx="425.089" cy="425.093" fill="#80b4fb" r="78.896"/><path d="m425.089 346.197c-2.191 0-4.354.113-6.5.289 40.472 3.319 72.396 37.294 72.396 78.607s-31.925 75.288-72.396 78.607c2.146.176 4.309.289 6.5.289 43.504 0 78.896-35.393 78.896-78.896s-35.393-78.896-78.896-78.896z" fill="#61a2f9"/><path d="m413.608 459.096c-3.074 0-6.145-1.174-8.486-3.515l-22.933-22.933c-4.686-4.687-4.686-12.284 0-16.971 4.687-4.687 12.284-4.687 16.971 0l14.621 14.621 37.413-35.896c4.783-4.587 12.378-4.431 16.967.351 4.588 4.782 4.431 12.379-.351 16.967l-45.895 44.034c-2.324 2.229-5.317 3.341-8.308 3.341z" fill="#e4f6ff"/><g fill="#f2b149"><path d="m270.563 11.478 21.397 46.407 51.476 21.328 11.644-4.291-41.121-17.038-21.397-46.407c-.98-2.126-3.107-3.488-5.449-3.488h-22c2.341 0 4.468 1.362 5.449 3.488z"/><path d="m500.501 219.442-46.409-21.426-17.011-41.123 17.647-47.938c.808-2.195.267-4.66-1.387-6.314l-43.977-44.005c-1.655-1.656-4.122-2.198-6.319-1.389l-12.475 4.597 40.771 40.797c1.653 1.654 2.194 4.119 1.387 6.314l-17.647 47.938 17.011 41.123 46.409 21.426c2.125.98 3.485 3.107 3.485 5.447v62.2c0 2.34-1.36 4.467-3.485 5.447l-46.409 21.426-13.457 32.52c2.131-.173 4.279-.286 6.453-.286 5.151 0 10.183.512 15.061 1.459l13.942-33.693 46.409-21.426c2.125-.98 3.485-3.107 3.485-5.447v-62.2c0-2.34-1.36-4.467-3.485-5.447z"/><path d="m339.737 434.326-47.777 19.77-21.396 46.406c-.98 2.126-3.107 3.488-5.449 3.488h22c2.341 0 4.468-1.362 5.449-3.488l21.396-46.406 33.692-13.941c-.29-1.491-.532-2.999-.734-4.519l-7.181-1.309z"/></g></svg>